<svg width="65" height="65" viewBox="0 0 65 65" fill="none" xmlns="http://www.w3.org/2000/svg">
<path d="M32.5 16.25C30.4913 16.25 28.5277 16.8457 26.8575 17.9616C25.1873 19.0776 23.8856 20.6638 23.1169 22.5196C22.3482 24.3754 22.147 26.4175 22.5389 28.3876C22.9308 30.3578 23.8981 32.1674 25.3185 33.5878C26.7388 35.0082 28.5485 35.9755 30.5186 36.3674C32.4887 36.7592 34.5308 36.5581 36.3866 35.7894C38.2424 35.0207 39.8286 33.7189 40.9446 32.0488C42.0606 30.3786 42.6563 28.415 42.6563 26.4063C42.6563 23.7126 41.5862 21.1294 39.6816 19.2247C37.7769 17.32 35.1936 16.25 32.5 16.25ZM32.5 32.5C31.2948 32.5 30.1166 32.1426 29.1145 31.473C28.1124 30.8034 27.3313 29.8517 26.8701 28.7382C26.4089 27.6247 26.2882 26.3995 26.5233 25.2174C26.7585 24.0353 27.3388 22.9495 28.1911 22.0973C29.0433 21.2451 30.1291 20.6647 31.3112 20.4296C32.4932 20.1945 33.7185 20.3151 34.832 20.7764C35.9455 21.2376 36.8972 22.0186 37.5668 23.0207C38.2364 24.0229 38.5938 25.201 38.5938 26.4063C38.5921 28.0219 37.9496 29.571 36.8072 30.7134C35.6647 31.8559 34.1157 32.4984 32.5 32.5Z" fill="white"/>
<path d="M32.5 4.0625C26.8756 4.0625 21.3775 5.73033 16.701 8.85508C12.0245 11.9798 8.37956 16.4212 6.22719 21.6174C4.07482 26.8137 3.51166 32.5315 4.60893 38.0479C5.7062 43.5642 8.41461 48.6313 12.3917 52.6083C16.3687 56.5854 21.4358 59.2938 26.9521 60.3911C32.4685 61.4883 38.1863 60.9252 43.3826 58.7728C48.5789 56.6204 53.0202 52.9755 56.1449 48.299C59.2697 43.6225 60.9375 38.1244 60.9375 32.5C60.9289 24.9605 57.9301 17.7324 52.5989 12.4012C47.2677 7.06995 40.0395 4.0711 32.5 4.0625ZM20.3125 53.5783V50.7812C20.3141 49.1656 20.9567 47.6165 22.0991 46.4741C23.2416 45.3316 24.7906 44.6891 26.4063 44.6875H38.5938C40.2094 44.6891 41.7585 45.3316 42.9009 46.4741C44.0434 47.6165 44.6859 49.1656 44.6875 50.7812V53.5783C40.9889 55.7379 36.7829 56.876 32.5 56.876C28.2171 56.876 24.0111 55.7379 20.3125 53.5783ZM48.7338 50.6309C48.6933 47.9666 47.6078 45.4248 45.7111 43.5532C43.8144 41.6816 41.2584 40.63 38.5938 40.625H26.4063C23.7416 40.63 21.1856 41.6816 19.2889 43.5532C17.3923 45.4248 16.3067 47.9666 16.2663 50.6309C12.5827 47.3418 9.98509 43.0115 8.81733 38.2132C7.64958 33.415 7.96678 28.3752 9.72693 23.7613C11.4871 19.1473 14.6072 15.1768 18.6741 12.3755C22.7409 9.57423 27.5627 8.07427 32.501 8.07427C37.4393 8.07427 42.2611 9.57423 46.328 12.3755C50.3949 15.1768 53.515 19.1473 55.2751 23.7613C57.0353 28.3752 57.3525 33.415 56.1847 38.2132C55.017 43.0115 52.4193 47.3418 48.7358 50.6309H48.7338Z" fill="white"/>
</svg>
