<svg width="41" height="41" viewBox="0 0 41 41" fill="none" xmlns="http://www.w3.org/2000/svg">
<path d="M40.6026 35.4741L31.6242 11.7492C31.5001 11.422 31.3127 11.1226 31.0727 10.8678C30.8328 10.6131 30.5451 10.4082 30.2259 10.2647C29.9068 10.1212 29.5625 10.0419 29.2127 10.0315C28.8629 10.0211 28.5145 10.0797 28.1874 10.204L23.9779 11.7892V7.88609C23.9779 7.20776 23.7085 6.55721 23.2288 6.07755C22.7492 5.5979 22.0986 5.32844 21.4203 5.32844H14.6532V2.55765C14.6532 1.87932 14.3837 1.22877 13.9041 0.749118C13.4244 0.269466 12.7739 0 12.0955 0H2.66422C1.95762 0 1.27997 0.280694 0.780331 0.780331C0.280693 1.27997 0 1.95762 0 2.66422V38.6312C0 38.9845 0.140347 39.3233 0.390165 39.5731C0.639984 39.8229 0.978811 39.9633 1.33211 39.9633H22.6458C22.9991 39.9633 23.338 39.8229 23.5878 39.5731C23.8376 39.3233 23.9779 38.9845 23.9779 38.6312V21.6734L30.6385 39.2706C30.7006 39.4342 30.7943 39.5839 30.9142 39.7113C31.0342 39.8386 31.1781 39.9411 31.3376 40.0128C31.4972 40.0846 31.6694 40.1242 31.8443 40.1294C32.0191 40.1346 32.1933 40.1053 32.3569 40.0432L39.83 37.1925C39.9936 37.1304 40.1433 37.0367 40.2707 36.9167C40.3981 36.7968 40.5005 36.6529 40.5723 36.4933C40.644 36.3337 40.6837 36.1616 40.6889 35.9867C40.6941 35.8118 40.6648 35.6376 40.6026 35.4741ZM11.989 7.7662V37.2991H2.66422V2.66422H11.989V7.7662ZM21.3137 37.2991H14.6532V7.99265H21.3137V37.2991ZM32.65 36.966L24.1511 14.5466L29.1332 12.655L37.6454 35.0744L32.65 36.966Z" fill="white"/>
</svg>
