<svg width="36" height="45" viewBox="0 0 36 45" fill="none" xmlns="http://www.w3.org/2000/svg">
<path d="M19.125 18.5625C19.125 18.1149 19.3028 17.6857 19.6192 17.3693C19.9357 17.0528 20.3649 16.875 20.8125 16.875H28.6875C29.135 16.875 29.5643 17.0528 29.8807 17.3693C30.1972 17.6857 30.375 18.1149 30.375 18.5625C30.375 19.0101 30.1972 19.4393 29.8807 19.7557C29.5643 20.0722 29.135 20.25 28.6875 20.25H20.8125C20.3649 20.25 19.9357 20.0722 19.6192 19.7557C19.3028 19.4393 19.125 19.0101 19.125 18.5625ZM20.8125 29.25C20.3649 29.25 19.9357 29.4278 19.6192 29.7443C19.3028 30.0607 19.125 30.4899 19.125 30.9375C19.125 31.3851 19.3028 31.8143 19.6192 32.1307C19.9357 32.4472 20.3649 32.625 20.8125 32.625H28.6875C29.135 32.625 29.5643 32.4472 29.8807 32.1307C30.1972 31.8143 30.375 31.3851 30.375 30.9375C30.375 30.4899 30.1972 30.0607 29.8807 29.7443C29.5643 29.4278 29.135 29.25 28.6875 29.25H20.8125ZM15.255 17.505C15.4208 17.3505 15.5538 17.1642 15.646 16.9572C15.7382 16.7502 15.7878 16.5268 15.7918 16.3002C15.7958 16.0736 15.7541 15.8485 15.6693 15.6384C15.5844 15.4283 15.4581 15.2374 15.2978 15.0772C15.1376 14.9169 14.9467 14.7906 14.7366 14.7057C14.5265 14.6209 14.3014 14.5792 14.0748 14.5832C13.8482 14.5872 13.6248 14.6368 13.4178 14.729C13.2108 14.8212 13.0245 14.9542 12.87 15.12L9.5625 18.4275L8.505 17.37C8.1851 17.0719 7.762 16.9096 7.32482 16.9174C6.88764 16.9251 6.47053 17.1022 6.16135 17.4114C5.85217 17.7205 5.67507 18.1376 5.66735 18.5748C5.65964 19.012 5.82192 19.4351 6.12 19.755L8.37 22.005C8.6864 22.321 9.11531 22.4985 9.5625 22.4985C10.0097 22.4985 10.4386 22.321 10.755 22.005L15.255 17.505ZM15.255 27.495C15.571 27.8114 15.7485 28.2403 15.7485 28.6875C15.7485 29.1347 15.571 29.5636 15.255 29.88L10.755 34.38C10.4386 34.696 10.0097 34.8735 9.5625 34.8735C9.11531 34.8735 8.6864 34.696 8.37 34.38L6.12 32.13C5.9542 31.9755 5.82122 31.7892 5.72899 31.5822C5.63676 31.3752 5.58716 31.1518 5.58317 30.9252C5.57917 30.6986 5.62085 30.4735 5.70572 30.2634C5.79059 30.0533 5.91692 29.8624 6.07716 29.7022C6.2374 29.5419 6.42828 29.4156 6.6384 29.3307C6.84852 29.2459 7.07359 29.2042 7.30017 29.2082C7.52675 29.2122 7.75021 29.2618 7.95721 29.354C8.1642 29.4462 8.35051 29.5792 8.505 29.745L9.5625 30.8025L12.87 27.495C13.1864 27.179 13.6153 27.0015 14.0625 27.0015C14.5097 27.0015 14.9386 27.179 15.255 27.495ZM26.9865 4.689C26.8922 3.41443 26.3193 2.22269 25.3828 1.35297C24.4463 0.483251 23.2155 -7.49199e-05 21.9375 8.71067e-09H14.0625C12.8173 3.76301e-05 11.6157 0.459016 10.6876 1.28919C9.75946 2.11936 9.16985 3.26248 9.0315 4.5H5.0625C3.71984 4.5 2.43217 5.03337 1.48277 5.98277C0.533369 6.93218 0 8.21984 0 9.5625V39.9375C0 41.2802 0.533369 42.5678 1.48277 43.5172C2.43217 44.4666 3.71984 45 5.0625 45H30.9375C31.6023 45 32.2606 44.8691 32.8748 44.6146C33.489 44.3602 34.0471 43.9873 34.5172 43.5172C34.9873 43.0471 35.3602 42.489 35.6146 41.8748C35.869 41.2606 36 40.6023 36 39.9375V9.5625C36 8.89768 35.869 8.23938 35.6146 7.62516C35.3602 7.01095 34.9873 6.45287 34.5172 5.98277C34.0471 5.51268 33.489 5.13977 32.8748 4.88536C32.2606 4.63094 31.6023 4.5 30.9375 4.5H26.9685L26.9865 4.689ZM26.9865 4.716L27 5.0625C27 4.9455 26.9955 4.83075 26.9887 4.716H26.9865ZM14.0625 10.125H21.9375C23.6925 10.125 25.2382 9.23175 26.1472 7.875H30.9375C31.385 7.875 31.8143 8.05279 32.1307 8.36926C32.4472 8.68572 32.625 9.11495 32.625 9.5625V39.9375C32.625 40.3851 32.4472 40.8143 32.1307 41.1307C31.8143 41.4472 31.385 41.625 30.9375 41.625H5.0625C4.61494 41.625 4.18572 41.4472 3.86926 41.1307C3.55279 40.8143 3.375 40.3851 3.375 39.9375V9.5625C3.375 9.11495 3.55279 8.68572 3.86926 8.36926C4.18572 8.05279 4.61494 7.875 5.0625 7.875H9.85274C10.7617 9.23175 12.3075 10.125 14.0625 10.125ZM14.0625 3.375H21.9375C22.385 3.375 22.8143 3.55279 23.1307 3.86926C23.4472 4.18572 23.625 4.61495 23.625 5.0625C23.625 5.51005 23.4472 5.93928 23.1307 6.25574C22.8143 6.57221 22.385 6.75 21.9375 6.75H14.0625C13.6149 6.75 13.1857 6.57221 12.8693 6.25574C12.5528 5.93928 12.375 5.51005 12.375 5.0625C12.375 4.61495 12.5528 4.18572 12.8693 3.86926C13.1857 3.55279 13.6149 3.375 14.0625 3.375Z" fill="white"/>
</svg>
